<svg xmlns="http://www.w3.org/2000/svg" version="1.1" xmlns:xlink="http://www.w3.org/1999/xlink" xmlns:svgjs="http://svgjs.dev/svgjs" width="1500" height="1500" viewBox="0 0 1500 1500"><rect width="1500" height="1500" fill="#231239"></rect><g transform="matrix(0.6666666666666666,0,0,0.6666666666666666,249.39393939393938,555.389009799137)"><svg viewBox="0 0 396 154" data-background-color="#231239" preserveAspectRatio="xMidYMid meet" height="583" width="1500" xmlns="http://www.w3.org/2000/svg" xmlns:xlink="http://www.w3.org/1999/xlink"><g id="tight-bounds" transform="matrix(1,0,0,1,0.2400000000000091,0.11001498524760223)"><svg viewBox="0 0 395.52 153.77989606581315" height="153.77989606581315" width="395.52"><g><svg viewBox="0 0 395.52 153.77989606581315" height="153.77989606581315" width="395.52"><g transform="matrix(1,0,0,1,0,97.56678003966536)"><svg viewBox="0 0 395.52 56.213116026147794" height="56.213116026147794" width="395.52"><g id="textblocktransform"><svg viewBox="0 0 395.52 56.213116026147794" height="56.213116026147794" width="395.52" id="textblock"><g><svg viewBox="0 0 395.52 56.213116026147794" height="56.213116026147794" width="395.52"><g transform="matrix(1,0,0,1,0,0)"><svg width="395.52" viewBox="-2.078081963958867 -27.808493669767444 308.6059388850217 43.86047809417285" height="56.213116026147794" data-palette-color="#f4ab4f"><path d="M14.516 15.335v0l-5.494 0.714c-0.145 0.019-0.228-0.051-0.249-0.21v0l-3.605-27.757-6.317 0.821c-0.159 0.021-0.248-0.048-0.269-0.207v0l-0.657-5.451c-0.016-0.126 0.038-0.197 0.164-0.213v0l18.484-2.401c0.178-0.023 0.276 0.028 0.293 0.154v0l0.707 5.444c0.021 0.159-0.032 0.246-0.158 0.263v0l-6.396 0.831 3.655 27.75c0.021 0.159-0.032 0.246-0.158 0.262zM18.749 14.528v0l2.204-34.195c0.012-0.129 0.084-0.201 0.217-0.216v0l7.063-0.811c0.132-0.015 0.219 0.039 0.26 0.161v0l9.659 32.833c0.038 0.157-0.016 0.243-0.162 0.26v0l-5.404 0.621c-0.159 0.018-0.254-0.051-0.286-0.209v0l-0.936-3.506-6.646 0.763-0.117 3.627c0.005 0.16-0.065 0.249-0.211 0.266v0l-5.425 0.623c-0.126 0.014-0.198-0.058-0.216-0.217zM29.792 4.362l-3.58-13.47-0.496-1.775-0.001 1.832-0.622 13.952zM49.269 11.947v0c-1.732 0.167-3.374-0.124-4.926-0.871v0c-1.533-0.756-2.802-1.836-3.808-3.24-1.013-1.403-1.604-2.993-1.776-4.772v0l-0.216-2.239c-0.017-0.179 0.054-0.276 0.213-0.292v0l5.485-0.529c0.133-0.013 0.208 0.07 0.225 0.25v0l0.216 2.24c0.102 1.062 0.546 1.947 1.33 2.654 0.791 0.701 1.687 1.003 2.69 0.907v0c1.022-0.098 1.85-0.577 2.484-1.435 0.641-0.852 0.912-1.796 0.812-2.831v0c-0.115-1.194-0.995-2.161-2.64-2.9v0c-0.268-0.135-0.615-0.299-1.043-0.493-0.427-0.193-0.934-0.412-1.52-0.657v0c-0.587-0.252-1.156-0.498-1.708-0.739-0.552-0.241-1.087-0.475-1.605-0.7v0c-1.886-0.876-3.337-2.066-4.352-3.569-1.021-1.496-1.627-3.229-1.817-5.2v0c-0.175-1.818 0.112-3.5 0.86-5.045v0c0.75-1.532 1.804-2.796 3.161-3.791 1.358-0.988 2.88-1.563 4.566-1.726v0c1.732-0.167 3.366 0.111 4.902 0.834v0c1.53 0.73 2.797 1.78 3.8 3.15 1.009 1.363 1.6 2.943 1.773 4.742v0l0.385 4.001c0.012 0.126-0.045 0.195-0.171 0.208v0l-5.484 0.528c-0.133 0.013-0.205-0.044-0.218-0.17v0l-0.425-3.997c-0.111-1.148-0.559-2.046-1.345-2.694-0.786-0.648-1.673-0.924-2.661-0.828v0c-1.002 0.097-1.825 0.561-2.468 1.393-0.637 0.832-0.904 1.775-0.802 2.83v0c0.102 1.062 0.414 1.929 0.934 2.602 0.52 0.673 1.416 1.277 2.686 1.811v0c0.132 0.054 0.443 0.185 0.931 0.392 0.482 0.208 1.024 0.441 1.625 0.698 0.594 0.258 1.132 0.487 1.613 0.688 0.488 0.201 0.781 0.32 0.879 0.358v0c1.713 0.752 3.105 1.744 4.174 2.973 1.076 1.229 1.707 2.806 1.892 4.73v0c0.179 1.858-0.092 3.569-0.811 5.132v0c-0.727 1.564-1.775 2.847-3.146 3.849-1.364 0.995-2.929 1.578-4.694 1.748zM67.609 9.866v0l-5.543 0.425c-0.126 0.01-0.196-0.065-0.208-0.225v0l-2.476-33.579c-0.012-0.16 0.045-0.244 0.171-0.254v0l5.494-0.421c0.126-0.01 0.196 0.065 0.208 0.224v0l0.889 11.586 6.785-12.224c0.117-0.136 0.231-0.208 0.344-0.217v0l5.614-0.431c0.146-0.011 0.184 0.049 0.114 0.182v0l-7.43 14.15 11.04 19.442c0.089 0.12 0.015 0.189-0.225 0.208v0l-5.982 0.459c-0.16 0.012-0.257-0.044-0.294-0.168v0l-7.724-13.88-1.49 2.802 0.894 11.666c0.012 0.16-0.048 0.244-0.181 0.255zM100.544 7.687v0l-15.843 0.925c-0.126 0.007-0.194-0.069-0.204-0.228v0l-1.913-33.616c-0.009-0.16 0.066-0.244 0.226-0.253v0l5.451-0.319c0.16-0.009 0.244 0.066 0.253 0.226v0l1.585 27.825 10.093-0.59c0.16-0.009 0.244 0.066 0.254 0.226v0l0.324 5.551c0.009 0.16-0.066 0.244-0.226 0.253zM109.546 7.285v0l-5.554 0.254c-0.16 0.007-0.243-0.069-0.251-0.229v0l-1.492-33.687c-0.006-0.127 0.055-0.193 0.181-0.198v0l5.505-0.252c0.133-0.006 0.203 0.054 0.208 0.181v0l1.582 33.683c0.007 0.16-0.052 0.243-0.179 0.248zM122.147 7.359v0c-1.739 0.054-3.359-0.343-4.859-1.19v0c-1.48-0.855-2.677-2.015-3.589-3.481-0.919-1.466-1.406-3.091-1.462-4.877v0l-0.069-2.249c-0.006-0.18 0.072-0.272 0.231-0.278v0l5.508-0.17c0.133-0.004 0.203 0.084 0.208 0.264v0l0.069 2.249c0.033 1.066 0.418 1.978 1.155 2.736 0.744 0.751 1.618 1.111 2.625 1.079v0c1.026-0.032 1.884-0.455 2.572-1.27 0.695-0.809 1.027-1.733 0.995-2.772v0c-0.037-1.199-0.852-2.221-2.446-3.066v0c-0.258-0.152-0.594-0.339-1.008-0.559-0.414-0.221-0.905-0.472-1.474-0.755v0c-0.569-0.289-1.122-0.572-1.657-0.849-0.535-0.277-1.054-0.544-1.555-0.802v0c-1.825-0.997-3.195-2.279-4.111-3.845-0.922-1.559-1.413-3.328-1.474-5.307v0c-0.056-1.826 0.339-3.485 1.187-4.979v0c0.848-1.48 1.982-2.672 3.401-3.577 1.42-0.898 2.976-1.372 4.668-1.425v0c1.739-0.054 3.352 0.33 4.838 1.151v0c1.48 0.828 2.675 1.958 3.587 3.391 0.918 1.426 1.405 3.041 1.46 4.848v0l0.124 4.018c0.004 0.127-0.057 0.192-0.184 0.196v0l-5.508 0.17c-0.133 0.004-0.202-0.057-0.205-0.184v0l-0.164-4.017c-0.036-1.153-0.424-2.078-1.167-2.775-0.742-0.697-1.609-1.031-2.602-1.001v0c-1.006 0.031-1.857 0.441-2.553 1.23-0.689 0.788-1.018 1.712-0.985 2.772v0c0.033 1.066 0.287 1.952 0.762 2.657 0.475 0.706 1.329 1.366 2.563 1.982v0c0.129 0.063 0.43 0.213 0.904 0.452 0.468 0.239 0.993 0.506 1.576 0.802 0.576 0.296 1.098 0.56 1.565 0.792 0.474 0.232 0.758 0.37 0.853 0.414v0c1.661 0.863 2.985 1.942 3.972 3.239 0.994 1.297 1.521 2.911 1.58 4.844v0c0.058 1.866-0.324 3.555-1.144 5.067v0c-0.827 1.513-1.957 2.725-3.389 3.637-1.426 0.904-3.025 1.384-4.798 1.438zM144.358 6.423v0l-5.54 0.072c-0.147 0.002-0.221-0.077-0.223-0.237v0l-0.363-27.988-6.37 0.083c-0.16 0.002-0.241-0.077-0.243-0.237v0l-0.021-5.49c-0.002-0.127 0.061-0.191 0.187-0.192v0l18.639-0.242c0.18-0.002 0.271 0.06 0.272 0.186v0l0.072 5.49c0.002 0.16-0.06 0.241-0.187 0.242v0l-6.45 0.084 0.414 27.987c0.002 0.16-0.06 0.241-0.187 0.242zM158.939 6.378v0l-5.56-0.031c-0.127-0.001-0.19-0.081-0.189-0.241v0l0.29-33.719c0.001-0.127 0.064-0.19 0.191-0.189v0l5.99 0.034c0.127 0.001 0.24 0.065 0.339 0.192v0l4.444 6.495 4.496-6.445c0.094-0.126 0.214-0.189 0.361-0.188v0l6.01 0.034c0.147 0.001 0.22 0.065 0.219 0.191v0l-0.1 33.72c-0.001 0.16-0.065 0.24-0.191 0.239v0l-5.56-0.031c-0.127-0.001-0.19-0.081-0.189-0.242v0l0.091-25.049-5.192 7.451-5.068-7.509-0.181 25.049c-0.001 0.16-0.068 0.24-0.201 0.239zM177.511 6.292v0l7.017-33.539c0.03-0.126 0.112-0.187 0.245-0.183v0l7.107 0.196c0.133 0.004 0.212 0.069 0.235 0.196v0l4.918 33.869c0.016 0.16-0.05 0.239-0.196 0.235v0l-5.438-0.15c-0.16-0.004-0.244-0.087-0.254-0.248v0l-0.43-3.603-6.688-0.184-0.629 3.574c-0.018 0.16-0.1 0.237-0.246 0.233v0l-5.458-0.151c-0.127-0.003-0.188-0.085-0.183-0.245zM189.88-2.21l-1.639-13.84-0.24-1.828-0.26 1.814-2.59 13.724zM205.13 7.436v0l-4.915-0.224c-0.253-0.012-0.374-0.131-0.364-0.357v0l1.471-33.398c0.012-0.253 0.144-0.374 0.397-0.362v0l4.436 0.202 7.401 19.697 0.623-18.951c0.012-0.253 0.16-0.373 0.447-0.36v0l4.865 0.221c0.193 0.009 0.284 0.14 0.272 0.393v0l-1.484 33.447c-0.009 0.193-0.09 0.286-0.243 0.28v0l-4.315-0.197-7.679-18.439-0.446 17.688c-0.012 0.253-0.167 0.373-0.466 0.36zM220.547 7.943v0l8.301-33.245c0.035-0.125 0.119-0.183 0.252-0.174v0l7.094 0.469c0.133 0.009 0.209 0.077 0.227 0.205v0l3.614 34.033c0.009 0.161-0.059 0.237-0.206 0.227v0l-5.428-0.359c-0.16-0.011-0.241-0.096-0.243-0.257v0l-0.292-3.617-6.676-0.441-0.765 3.547c-0.024 0.159-0.109 0.233-0.256 0.224v0l-5.448-0.36c-0.126-0.008-0.184-0.092-0.174-0.252zM233.234-0.078l-1.106-13.893-0.17-1.835-0.329 1.802-3.115 13.614zM250.72 10.85v0c-1.767-0.148-3.322-0.719-4.664-1.714v0c-1.362-0.997-2.416-2.272-3.162-3.827-0.74-1.554-1.033-3.244-0.881-5.071v0l1.296-15.506c0.149-1.78 0.72-3.368 1.713-4.764v0c0.987-1.409 2.242-2.495 3.764-3.257 1.522-0.763 3.144-1.072 4.864-0.929v0c1.8 0.15 3.389 0.718 4.765 1.703v0c1.375 0.998 2.427 2.263 3.155 3.796 0.728 1.539 1.015 3.222 0.862 5.05v0l-0.188 2.252c-0.011 0.126-0.092 0.183-0.245 0.17v0l-5.501-0.46c-0.126-0.011-0.184-0.079-0.173-0.205v0l0.156-1.864c0.104-1.242-0.159-2.301-0.789-3.176-0.636-0.869-1.48-1.348-2.529-1.436v0c-0.937-0.078-1.807 0.244-2.609 0.966-0.796 0.716-1.237 1.599-1.326 2.649v0l-1.296 15.506c-0.089 1.063 0.193 2.013 0.846 2.85 0.653 0.831 1.465 1.286 2.435 1.368v0c1.05 0.088 1.958-0.218 2.725-0.916 0.761-0.699 1.187-1.597 1.279-2.693v0l0.202-2.412-3.418-0.285c-0.173-0.014-0.252-0.101-0.24-0.261v0l0.458-5.471c0.013-0.159 0.106-0.232 0.279-0.218v0l9.148 0.765c0.126 0.011 0.183 0.096 0.169 0.255v0l-0.679 8.122c-0.153 1.827-0.719 3.445-1.7 4.855v0c-1.001 1.408-2.252 2.491-3.753 3.248-1.508 0.757-3.163 1.06-4.963 0.91zM279.462 13.123v0l-15.788-1.608c-0.126-0.013-0.181-0.099-0.165-0.258v0l3.466-33.541c0.013-0.126 0.082-0.183 0.209-0.17v0l15.689 1.598c0.126 0.013 0.181 0.099 0.164 0.258v0l-0.555 5.452c-0.014 0.133-0.083 0.193-0.209 0.179v0l-10.008-1.019-0.778 7.631 10.009 1.019c0.126 0.013 0.183 0.082 0.169 0.208v0l-0.513 5.537c-0.013 0.126-0.082 0.183-0.208 0.169v0l-10.058-1.024-0.87 8.536 10.058 1.024c0.126 0.013 0.181 0.099 0.165 0.258v0l-0.568 5.581c-0.013 0.126-0.082 0.183-0.209 0.17zM289.355 14.32v0l-5.519-0.673c-0.126-0.015-0.179-0.102-0.159-0.261v0l4.177-33.46c0.015-0.126 0.086-0.181 0.212-0.166v0l9.847 1.2c1.76 0.214 3.326 0.838 4.698 1.872v0c1.372 1.034 2.41 2.325 3.114 3.875 0.704 1.557 0.944 3.245 0.723 5.065v0c-0.145 1.191-0.459 2.248-0.94 3.169v0c-0.482 0.922-1.005 1.688-1.569 2.297-0.565 0.61-1.065 1.049-1.501 1.318v0c1.523 2.16 2.124 4.557 1.804 7.191v0l-1.169 10.002c-0.019 0.159-0.108 0.229-0.267 0.21v0l-5.519-0.673c-0.132-0.016-0.193-0.071-0.182-0.163v0l1.23-10.095c0.143-1.171-0.144-2.234-0.861-3.188-0.722-0.961-1.686-1.515-2.89-1.662v0l-3.216-0.392-1.785 14.32c-0.019 0.159-0.095 0.23-0.228 0.214zM297.203-13.213v0l-4.189-0.511-0.934 7.664 4.189 0.51c0.999 0.122 1.938-0.143 2.817-0.795 0.872-0.653 1.374-1.518 1.505-2.597v0c0.126-1.032-0.146-1.969-0.816-2.809-0.669-0.847-1.526-1.334-2.572-1.462z" opacity="1" transform="matrix(1,0,0,1,0,0)" fill="#f4ab4f" class="wordmark-text-0" data-fill-palette-color="primary" id="text-0"></path></svg></g></svg></g></svg></g></svg></g><g transform="matrix(1,0,0,1,168.6086513336064,0)"><svg viewBox="0 0 58.30269733278719 80.94801133997333" height="80.94801133997333" width="58.30269733278719"><g><svg xmlns="http://www.w3.org/2000/svg" xmlns:xlink="http://www.w3.org/1999/xlink" version="1.1" x="0" y="0" viewBox="11.8 9.3 81.10000000000001 112.60000000000001" enable-background="new 0 0 108.3 129.2" xml:space="preserve" height="80.94801133997333" width="58.30269733278719" class="icon-icon-0" data-fill-palette-color="accent" id="icon-0"><g fill="#f4ab4f" data-fill-palette-color="accent"><g fill="#f4ab4f" data-fill-palette-color="accent"><g fill="#f4ab4f" data-fill-palette-color="accent"><g fill="#f4ab4f" data-fill-palette-color="accent"><path fill="#f4ab4f" d="M71 121.4C67 121.4 63.8 119.9 62.1 118.5L61.8 118.2 50.2 106 54 102.4 65.4 114.5C66.3 115.1 71.7 118.5 78.3 113.5 80.3 112 81.4 110.3 81.6 108.5 81.9 105.3 79.5 102.4 79.4 102.4L65.8 88.4 69.6 84.7 83.2 98.8C83.4 99.1 87.3 103.5 86.7 109 86.4 112.4 84.6 115.3 81.3 117.7 77.8 120.5 74.2 121.4 71 121.4" data-fill-palette-color="accent"></path></g></g></g><g fill="#f4ab4f" data-fill-palette-color="accent"><g fill="#f4ab4f" data-fill-palette-color="accent"><g fill="#f4ab4f" data-fill-palette-color="accent"><path fill="#f4ab4f" d="M72 109.4C71.5 109.4 71.1 109.2 70.7 108.9L58.3 95.9C57.6 95.2 57.7 94.1 58.4 93.4S60.2 92.8 60.9 93.5L73.3 106.5C74 107.2 73.9 108.3 73.2 109 72.8 109.2 72.4 109.4 72 109.4" data-fill-palette-color="accent"></path></g></g></g><g fill="#f4ab4f" data-fill-palette-color="accent"><g fill="#f4ab4f" data-fill-palette-color="accent"><g fill="#f4ab4f" data-fill-palette-color="accent"><path fill="#f4ab4f" d="M30.1 109.7C29.7 109.7 29.2 109.5 28.9 109.2 28.2 108.5 28.2 107.4 28.9 106.7L67.8 67C69.6 65.4 74.3 61 75.5 59.2 77.2 56.7 77.3 53.2 77.3 49.8 77.2 36.1 66.1 25 52.4 25S27.6 36.1 27.6 49.8C27.6 55.1 28.6 59 30.6 61.8 33.6 65.9 44.8 76.7 44.9 76.8 45.6 77.5 45.6 78.6 44.9 79.3S43.1 80 42.4 79.3C42 78.8 31 68.2 27.8 63.9 25.3 60.5 24.1 55.9 24.1 49.9 24.1 34.3 36.8 21.6 52.4 21.6S80.7 34.3 80.7 49.9C80.7 53.8 80.5 57.9 78.3 61.2 76.7 63.7 70.8 69 70.1 69.6L31.3 109.2C31 109.5 30.5 109.7 30.1 109.7" data-fill-palette-color="accent"></path></g></g></g><g fill="#f4ab4f" data-fill-palette-color="accent"><g fill="#f4ab4f" data-fill-palette-color="accent"><g fill="#f4ab4f" data-fill-palette-color="accent"><path fill="#f4ab4f" d="M30.6 121.9C27.6 121.9 24.4 121 21.1 118.5 17.9 116 16 113.1 15.6 109.7 14.9 104.2 18.4 99.7 18.5 99.5L18.7 99.2 31.8 86.5 26.8 81.2C17.3 73.5 11.8 62 11.8 49.7 11.9 27.5 30 9.3 52.4 9.3S92.9 27.5 92.9 49.8C92.9 63.4 87.6 74.8 78 82L41.4 117.7C39.3 119.7 35.3 121.9 30.6 121.9M22.6 102.9C22.2 103.5 20.5 106.2 20.9 109.1 21.2 111 22.3 112.8 24.4 114.4 31.4 119.7 37.6 114.2 37.8 114L74.8 78C83.2 71.8 87.7 62.1 87.7 49.9 87.7 30.5 71.9 14.6 52.4 14.6S17.1 30.4 17.1 49.8C17.1 60.5 21.9 70.6 30.3 77.3L30.6 77.5 35.7 82.9 48.6 70.4 38 59.4C36.1 56.5 35 53.2 35 49.7 35 40.2 42.8 32.4 52.3 32.4S69.6 40.2 69.6 49.7C69.6 53.2 68.6 56.5 66.6 59.4L66.3 59.8 55.7 70.8zM42.3 56.4L52.4 66.8 62.5 56.4C63.8 54.5 64.4 52.2 64.4 49.9 64.4 43.3 59 37.9 52.4 37.9S40.4 43.3 40.4 49.9C40.4 52.2 41 54.4 42.3 56.4" data-fill-palette-color="accent"></path></g></g></g></g></svg></g></svg></g><g></g></svg></g><defs></defs></svg><rect width="395.52" height="153.77989606581315" fill="none" stroke="none" visibility="hidden"></rect></g></svg></g></svg>